<svg width="51" height="20" viewBox="0 0 51 20" fill="none" xmlns="http://www.w3.org/2000/svg">
<path d="M22.416 14.936C22.416 12.248 20.512 10.176 17.544 10.288C17.824 6.536 20.736 3.288 22.696 1.776L22.136 0.935997C18.048 3.512 12.896 8.832 12.896 14.32C12.896 17.456 14.688 19.752 17.6 19.752C20.512 19.752 22.416 17.512 22.416 14.936ZM9.984 14.936C9.984 12.248 8.08 10.176 5.112 10.288C5.392 6.536 8.304 3.288 10.264 1.776L9.704 0.935997C5.616 3.512 0.464 8.832 0.464 14.32C0.464 17.456 2.256 19.752 5.168 19.752C8.08 19.752 9.984 17.512 9.984 14.936ZM41.099 5.696C41.099 8.44 43.003 10.512 46.027 10.344C45.691 14.152 42.835 17.4 40.875 18.912L41.435 19.752C45.523 17.176 50.675 11.856 50.675 6.312C50.675 3.232 48.883 0.935997 45.971 0.935997C43.003 0.935997 41.099 3.176 41.099 5.696ZM28.667 5.696C28.667 8.44 30.571 10.512 33.595 10.344C33.259 14.152 30.403 17.4 28.443 18.912L29.003 19.752C33.091 17.176 38.243 11.856 38.243 6.312C38.243 3.232 36.451 0.935997 33.539 0.935997C30.571 0.935997 28.667 3.176 28.667 5.696Z" fill="#A435F0"/>
</svg>
